<svg width="76" height="96" viewBox="0 0 76 96" fill="none" xmlns="http://www.w3.org/2000/svg">
<path d="M66.9481 19.3621C65.5462 16.03 65.2749 13.1032 65.908 10.4916C66.9933 9.09569 68.8022 8.3302 70.9276 7.83489C69.571 7.56472 68.2595 7.47467 66.9933 7.60975C68.5309 4.72795 71.1537 2.2514 74.4097 -2.7483e-06C67.3551 1.48593 61.2501 4.3227 58.0393 11.6623C45.6032 3.91744 28.9163 3.197 16.8872 11.0769C13.6312 4.18762 7.66185 1.39587 0.788086 -2.7483e-06C4.04408 2.2514 6.66696 4.72795 8.20452 7.60975C6.98352 7.47467 5.67207 7.56472 4.36063 7.83489C6.39563 8.28517 8.1593 9.00563 9.24463 10.3565C9.92296 13.1032 9.65163 16.1651 8.06885 19.7673C-1.11124 31.97 -1.06602 51.3321 9.38029 62.7692C12.0484 65.6961 15.8018 68.5328 19.4196 70.1989C24.5297 72.5403 29.7303 74.3865 35.3378 75.0619C49.3114 76.728 39.7244 96 39.7244 96C64.8226 87.6698 71.2894 61.8687 72.5556 58.8068V58.7617C77.9823 41.8762 74.5906 28.5028 66.9481 19.3621Z" fill="#2644BC"/>
<path d="M17.2939 40.4353C17.2939 48.3152 21.9066 55.1595 28.5995 58.4015L19.0576 32.3302C17.9271 34.8068 17.2939 37.5535 17.2939 40.4353Z" fill="white"/>
<path d="M50.8491 39.4446C50.8491 36.9681 49.9447 35.257 49.1759 33.9512C48.181 32.2852 47.1861 30.9343 47.1861 29.2683C47.1861 27.4221 48.588 25.7111 50.5326 25.7111C50.623 25.7111 50.7135 25.7111 50.8039 25.7111C47.2314 22.469 42.483 20.4878 37.2825 20.4878C30.2731 20.4878 24.1228 24.045 20.5503 29.4934C21.0025 29.4934 21.4547 29.5385 21.8617 29.5385C23.942 29.5385 27.1979 29.2683 27.1979 29.2683C28.2833 29.2233 28.419 30.7992 27.3336 30.9343C27.3336 30.9343 26.2483 31.0694 25.0273 31.1144L32.3081 52.7279L36.6946 39.6248L33.5743 31.1144C32.4889 31.0694 31.494 30.9343 31.494 30.9343C30.4087 30.8893 30.5444 29.2233 31.6297 29.2683C31.6297 29.2683 34.9309 29.5385 36.9207 29.5385C39.0009 29.5385 42.2569 29.2683 42.2569 29.2683C43.3423 29.2233 43.4779 30.7992 42.3926 30.9343C42.3926 30.9343 41.3073 31.0694 40.0863 31.1144L47.3218 52.5929L49.3116 45.9287C50.216 43.1369 50.8491 41.1557 50.8491 39.4446Z" fill="white"/>
<path d="M37.6894 42.1914L31.6748 59.5723C33.4837 60.1126 35.383 60.3828 37.3276 60.3828C39.6791 60.3828 41.895 59.9775 43.9752 59.257C43.93 59.167 43.8848 59.0769 43.8396 58.9869L37.6894 42.1914Z" fill="white"/>
<path d="M54.919 30.8443C55.0094 31.4747 55.0547 32.1501 55.0547 32.9156C55.0547 34.9419 54.6929 37.2383 53.5171 40.0751L47.4121 57.6811C53.3814 54.2139 57.361 47.7749 57.361 40.4353C57.361 36.9681 56.5018 33.6811 54.919 30.8443Z" fill="white"/>
<path d="M37.3276 17.1557C24.4393 17.1557 13.9478 27.6022 13.9478 40.4353C13.9478 53.2683 24.4393 63.7148 37.3276 63.7148C50.2159 63.7148 60.7074 53.2683 60.7074 40.4353C60.7074 27.6022 50.2159 17.1557 37.3276 17.1557ZM37.3276 62.6341C25.0272 62.6341 15.0331 52.6829 15.0331 40.4353C15.0331 28.1876 25.0272 18.2364 37.3276 18.2364C49.628 18.2364 59.6221 28.1876 59.6221 40.4353C59.6221 52.6829 49.628 62.6341 37.3276 62.6341Z" fill="white"/>
</svg>
